<?xml version="1.0" standalone="no"?>
<svg xmlns:xlink="http://www.w3.org/1999/xlink" id="wave" style="transform:rotate(0deg); transition: 0.3s" viewBox="0 0 1440 490" version="1.1" xmlns="http://www.w3.org/2000/svg"><defs><linearGradient id="sw-gradient-0" x1="0" x2="0" y1="1" y2="0"><stop stop-color="rgba(16.238, 184.827, 212.061, 1)" offset="0%"/><stop stop-color="rgba(32.195, 32.195, 32.195, 1)" offset="100%"/></linearGradient></defs><path style="transform:translate(0, 0px); opacity:1" fill="url(#sw-gradient-0)" d="M0,98L80,130.7C160,163,320,229,480,269.5C640,310,800,327,960,294C1120,261,1280,180,1440,163.3C1600,147,1760,196,1920,187.8C2080,180,2240,114,2400,98C2560,82,2720,114,2880,130.7C3040,147,3200,147,3360,196C3520,245,3680,343,3840,343C4000,343,4160,245,4320,204.2C4480,163,4640,180,4800,179.7C4960,180,5120,163,5280,147C5440,131,5600,114,5760,130.7C5920,147,6080,196,6240,220.5C6400,245,6560,245,6720,204.2C6880,163,7040,82,7200,57.2C7360,33,7520,65,7680,130.7C7840,196,8000,294,8160,334.8C8320,376,8480,359,8640,334.8C8800,310,8960,278,9120,294C9280,310,9440,376,9600,400.2C9760,425,9920,408,10080,383.8C10240,359,10400,327,10560,285.8C10720,245,10880,196,11040,163.3C11200,131,11360,114,11440,106.2L11520,98L11520,490L11440,490C11360,490,11200,490,11040,490C10880,490,10720,490,10560,490C10400,490,10240,490,10080,490C9920,490,9760,490,9600,490C9440,490,9280,490,9120,490C8960,490,8800,490,8640,490C8480,490,8320,490,8160,490C8000,490,7840,490,7680,490C7520,490,7360,490,7200,490C7040,490,6880,490,6720,490C6560,490,6400,490,6240,490C6080,490,5920,490,5760,490C5600,490,5440,490,5280,490C5120,490,4960,490,4800,490C4640,490,4480,490,4320,490C4160,490,4000,490,3840,490C3680,490,3520,490,3360,490C3200,490,3040,490,2880,490C2720,490,2560,490,2400,490C2240,490,2080,490,1920,490C1760,490,1600,490,1440,490C1280,490,1120,490,960,490C800,490,640,490,480,490C320,490,160,490,80,490L0,490Z"/><defs><linearGradient id="sw-gradient-1" x1="0" x2="0" y1="1" y2="0"><stop stop-color="rgba(68.73, 165.011, 180.186, 1)" offset="0%"/><stop stop-color="rgba(22.625, 97.509, 109.606, 1)" offset="100%"/></linearGradient></defs><path style="transform:translate(0, 50px); opacity:0.9" fill="url(#sw-gradient-1)" d="M0,98L80,114.3C160,131,320,163,480,220.5C640,278,800,359,960,383.8C1120,408,1280,376,1440,343C1600,310,1760,278,1920,285.8C2080,294,2240,343,2400,343C2560,343,2720,294,2880,261.3C3040,229,3200,212,3360,171.5C3520,131,3680,65,3840,65.3C4000,65,4160,131,4320,187.8C4480,245,4640,294,4800,318.5C4960,343,5120,343,5280,351.2C5440,359,5600,376,5760,367.5C5920,359,6080,327,6240,318.5C6400,310,6560,327,6720,285.8C6880,245,7040,147,7200,122.5C7360,98,7520,147,7680,138.8C7840,131,8000,65,8160,49C8320,33,8480,65,8640,122.5C8800,180,8960,261,9120,294C9280,327,9440,310,9600,261.3C9760,212,9920,131,10080,138.8C10240,147,10400,245,10560,269.5C10720,294,10880,245,11040,196C11200,147,11360,98,11440,73.5L11520,49L11520,490L11440,490C11360,490,11200,490,11040,490C10880,490,10720,490,10560,490C10400,490,10240,490,10080,490C9920,490,9760,490,9600,490C9440,490,9280,490,9120,490C8960,490,8800,490,8640,490C8480,490,8320,490,8160,490C8000,490,7840,490,7680,490C7520,490,7360,490,7200,490C7040,490,6880,490,6720,490C6560,490,6400,490,6240,490C6080,490,5920,490,5760,490C5600,490,5440,490,5280,490C5120,490,4960,490,4800,490C4640,490,4480,490,4320,490C4160,490,4000,490,3840,490C3680,490,3520,490,3360,490C3200,490,3040,490,2880,490C2720,490,2560,490,2400,490C2240,490,2080,490,1920,490C1760,490,1600,490,1440,490C1280,490,1120,490,960,490C800,490,640,490,480,490C320,490,160,490,80,490L0,490Z"/><defs><linearGradient id="sw-gradient-2" x1="0" x2="0" y1="1" y2="0"><stop stop-color="rgba(32, 29, 34, 1)" offset="0%"/><stop stop-color="rgba(13.614, 108.017, 123.267, 1)" offset="100%"/></linearGradient></defs><path style="transform:translate(0, 100px); opacity:0.8" fill="url(#sw-gradient-2)" d="M0,294L80,302.2C160,310,320,327,480,285.8C640,245,800,147,960,155.2C1120,163,1280,278,1440,334.8C1600,392,1760,392,1920,351.2C2080,310,2240,229,2400,196C2560,163,2720,180,2880,163.3C3040,147,3200,98,3360,130.7C3520,163,3680,278,3840,294C4000,310,4160,229,4320,179.7C4480,131,4640,114,4800,163.3C4960,212,5120,327,5280,375.7C5440,425,5600,408,5760,375.7C5920,343,6080,294,6240,269.5C6400,245,6560,245,6720,228.7C6880,212,7040,180,7200,212.3C7360,245,7520,343,7680,392C7840,441,8000,441,8160,383.8C8320,327,8480,212,8640,155.2C8800,98,8960,98,9120,122.5C9280,147,9440,196,9600,236.8C9760,278,9920,310,10080,269.5C10240,229,10400,114,10560,98C10720,82,10880,163,11040,212.3C11200,261,11360,278,11440,285.8L11520,294L11520,490L11440,490C11360,490,11200,490,11040,490C10880,490,10720,490,10560,490C10400,490,10240,490,10080,490C9920,490,9760,490,9600,490C9440,490,9280,490,9120,490C8960,490,8800,490,8640,490C8480,490,8320,490,8160,490C8000,490,7840,490,7680,490C7520,490,7360,490,7200,490C7040,490,6880,490,6720,490C6560,490,6400,490,6240,490C6080,490,5920,490,5760,490C5600,490,5440,490,5280,490C5120,490,4960,490,4800,490C4640,490,4480,490,4320,490C4160,490,4000,490,3840,490C3680,490,3520,490,3360,490C3200,490,3040,490,2880,490C2720,490,2560,490,2400,490C2240,490,2080,490,1920,490C1760,490,1600,490,1440,490C1280,490,1120,490,960,490C800,490,640,490,480,490C320,490,160,490,80,490L0,490Z"/></svg>